# xmcd
#
# Track frame offsets: 
#        150
#        12079
#        26301
#        37486
#        47799
#        61814
#        73737
#        83542
#        94754
#        108066
#        123570
#        137201
#        154087
#        167318
#        178337
#        190211
#
# Disc length: 2741 seconds
#
# Revision: 0
# Processed by: cddbd v1.5.2PL0 Copyright (c) Steve Scherf et al.
# Submitted via: ExactAudioCopyFreeDBPlugin 1.0
#
DISCID=d00ab310
DTITLE=Conway Twitty - The Country Collection
DYEAR=2001
DGENRE=Country
TTITLE0=Lying Here With Linda On My Mind
TTITLE1=You´ve Never Been This Far Before
TTITLE2=It´s Only Make Believe
TTITLE3=I Can´t Belive She Gives It All To Me
TTITLE4=Fifteen Years Ago
TTITLE5=She Needs Someone To Hold Her When She Cries
TTITLE6=I´ll Try
TTITLE7=Hello Darlin´
TTITLE8=All The Good Is Gone
TTITLE9=On Your Last Date
TTITLE10=Play The Games That Daddies Play
TTITLE11=Don´t Cry Joni
TTITLE12=Danny Boy
TTITLE13=As Soon As I Hang Up The Phone
TTITLE14=I´m Not Through Loving You Yet
TTITLE15=Touch The Hand
EXTD=
EXTT0=
EXTT1=
EXTT2=
EXTT3=
EXTT4=
EXTT5=
EXTT6=
EXTT7=
EXTT8=
EXTT9=
EXTT10=
EXTT11=
EXTT12=
EXTT13=
EXTT14=
EXTT15=
PLAYORDER=
